<?xml version="1.0" standalone="no"?>
<!DOCTYPE svg PUBLIC "-//W3C//DTD SVG 20010904//EN"
 "http://www.w3.org/TR/2001/REC-SVG-20010904/DTD/svg10.dtd">
<svg version="1.0" xmlns="http://www.w3.org/2000/svg"
 width="326.000000pt" height="326.000000pt" viewBox="0 0 326.000000 326.000000"
 preserveAspectRatio="xMidYMid meet">
<metadata>
Created by potrace 1.14, written by Peter Selinger 2001-2017
</metadata>
<g transform="translate(0.000000,326.000000) scale(0.100000,-0.100000)"
fill="#000000" stroke="none">
<path d="M140 3246 c0 -7 10 -20 23 -29 17 -12 19 -18 10 -28 -10 -10 -4 -20
30 -52 41 -38 42 -38 45 -15 5 32 19 45 34 30 26 -26 41 -14 34 27 -3 23 -2
42 4 46 5 3 10 13 10 21 0 11 -19 14 -95 14 -74 0 -95 -3 -95 -14z"/>
<path d="M522 3233 c-9 -24 -9 -70 0 -168 0 -11 -2 -28 -6 -37 -6 -13 -4 -18
7 -18 16 0 31 -39 32 -80 0 -22 5 -25 43 -28 23 -2 42 -7 42 -13 0 -5 -4 -9
-10 -9 -5 0 -10 -7 -10 -15 0 -17 25 -20 35 -5 3 6 17 10 31 10 l25 0 -18 31
c-40 71 -44 80 -39 97 6 19 58 42 92 42 25 0 44 -18 44 -43 0 -10 5 -17 13
-14 6 2 12 10 12 18 0 8 8 17 18 21 25 11 16 34 -11 30 -12 -2 -22 1 -22 7 0
22 13 41 28 41 11 0 8 8 -13 30 -33 35 -55 39 -55 10 0 -15 -7 -20 -26 -20
-18 0 -25 5 -23 18 4 41 0 46 -21 27 -26 -24 -52 -13 -44 19 8 34 -36 76 -80
76 -27 0 -35 -5 -44 -27z"/>
<path d="M722 3249 c2 -6 8 -10 13 -10 5 0 11 4 13 10 2 6 -4 11 -13 11 -9 0
-15 -5 -13 -11z"/>
<path d="M1420 3250 c0 -5 -9 -10 -20 -10 -11 0 -20 -4 -20 -10 0 -14 13 -13
46 5 16 8 40 15 55 15 22 0 25 -4 25 -35 0 -19 -4 -35 -8 -35 -4 0 -8 -6 -8
-14 0 -24 -29 -46 -61 -46 -23 0 -29 4 -29 21 0 18 -4 20 -27 14 -16 -3 -39
-7 -52 -7 -18 0 -21 -2 -10 -9 12 -8 11 -12 -5 -24 -11 -8 -26 -15 -33 -15 -7
0 -13 -11 -13 -25 0 -14 -5 -25 -11 -25 -6 0 -9 -6 -6 -14 12 -31 -44 -42 -97
-21 -32 13 -51 -8 -51 -56 -1 -24 3 -50 8 -56 5 -7 7 -20 3 -28 -4 -11 -11
-13 -30 -6 -27 11 -36 6 -36 -20 0 -16 -3 -17 -26 -7 -22 10 -27 9 -35 -5 -6
-9 -18 -17 -28 -17 -29 0 -104 -41 -125 -69 -12 -14 -31 -36 -43 -49 -14 -13
-23 -35 -23 -53 0 -16 -7 -46 -15 -66 -17 -41 -20 -80 -10 -140 5 -28 4 -43
-3 -43 -6 0 -12 5 -14 12 -3 7 -13 2 -26 -13 -20 -21 -22 -30 -16 -89 6 -61 4
-66 -20 -87 -14 -13 -30 -23 -36 -23 -5 0 -13 -15 -18 -32 -6 -27 -19 -39 -74
-68 -104 -55 -110 -61 -112 -105 -2 -30 -7 -41 -21 -44 -12 -2 -16 1 -12 12 9
23 -13 37 -59 37 -24 0 -54 4 -68 10 -27 10 -46 -4 -28 -22 6 -6 6 -24 2 -46
-5 -20 -11 -64 -15 -97 -3 -33 -10 -61 -15 -63 -16 -6 -11 -42 6 -42 8 0 13
-4 9 -9 -3 -6 4 -19 16 -30 19 -17 21 -24 11 -45 -13 -28 -7 -36 25 -36 29 0
29 -7 -2 -32 -31 -24 -32 -62 -4 -82 21 -14 19 -36 -4 -36 -12 0 -119 52 -141
68 -6 5 -18 8 -26 7 -8 -1 -27 7 -42 17 -46 32 -49 26 -46 -84 l3 -103 29 -5
c16 -3 31 -11 34 -17 4 -15 -24 -17 -33 -3 -3 6 -13 10 -21 10 -11 0 -14 -15
-14 -63 0 -57 2 -65 24 -77 14 -7 31 -10 39 -7 8 3 23 -1 34 -8 27 -21 31 -19
44 25 7 22 16 40 21 40 14 0 46 -38 68 -80 11 -22 27 -40 34 -40 8 0 24 -20
36 -45 24 -50 42 -56 76 -24 l23 22 7 -27 c5 -21 2 -31 -15 -42 -35 -25 -26
-44 22 -46 23 0 54 0 68 1 21 2 28 -3 33 -25 4 -15 16 -40 27 -55 10 -15 19
-36 19 -47 0 -29 30 -82 46 -82 8 0 14 -4 14 -8 0 -4 14 -13 30 -19 40 -15 38
-33 -2 -33 -23 0 -43 -10 -66 -31 -30 -29 -32 -33 -19 -53 8 -11 27 -28 43
-36 16 -8 30 -18 32 -22 2 -5 10 -8 18 -8 8 0 37 -12 64 -26 45 -24 78 -25 65
-3 -4 5 -2 9 3 9 21 0 33 -49 29 -112 -3 -44 -1 -73 7 -85 19 -27 26 -62 12
-57 -15 6 -17 -26 -3 -44 8 -10 7 -16 -1 -21 -8 -4 -5 -11 8 -19 12 -7 21 -8
25 -2 3 6 17 10 31 10 17 0 24 -5 24 -20 0 -17 5 -19 32 -13 27 5 30 4 25 -10
-4 -10 -10 -24 -13 -33 -5 -10 0 -17 15 -21 27 -7 27 -30 1 -38 -29 -9 -25
-19 20 -49 22 -14 40 -22 40 -17 0 14 60 101 70 101 4 0 13 14 19 30 5 17 16
30 24 30 8 0 22 11 31 25 10 15 26 25 40 25 13 0 26 7 30 15 3 9 18 15 35 15
29 0 29 0 29 63 1 58 26 249 51 381 13 69 72 210 118 283 18 29 33 56 33 60 0
4 18 28 39 53 l39 45 31 -23 c17 -12 33 -22 37 -22 4 0 43 -32 86 -71 43 -39
82 -69 85 -65 9 9 -16 35 -97 98 -154 120 -141 105 -139 159 2 27 6 49 10 49
11 0 191 -180 231 -230 74 -96 92 -191 86 -473 -2 -128 0 -198 6 -184 11 27
14 415 4 477 l-8 45 15 -44 c21 -65 37 -185 45 -351 3 -80 8 -120 9 -90 5 83
12 37 30 -199 l16 -216 608 -3 607 -2 0 1630 0 1630 -642 -1 c-354 -1 -656 -5
-673 -9 -23 -6 -25 -8 -8 -9 33 -2 37 -19 6 -23 -26 -3 38 -13 239 -38 52 -6
110 -21 145 -37 77 -35 213 -113 213 -122 0 -4 12 -13 27 -20 25 -12 101 -68
179 -135 39 -32 45 -53 12 -34 -13 7 -43 20 -68 29 -25 9 -52 19 -60 22 -8 4
-22 3 -30 -2 -12 -8 -12 -13 4 -30 11 -12 23 -21 29 -21 21 0 217 -184 217
-204 0 -3 8 -14 19 -25 23 -23 94 -142 88 -148 -2 -2 -23 12 -46 31 -23 19
-50 38 -61 41 -11 4 -20 11 -20 16 0 6 -4 7 -10 4 -5 -3 -10 1 -10 9 0 9 -5
16 -10 16 -15 0 -25 -31 -13 -39 25 -16 37 -269 14 -308 -10 -17 -10 -17 -11
3 0 27 -46 161 -64 189 -8 12 -16 37 -18 56 -4 46 -20 34 -24 -17 -1 -22 -12
-59 -24 -82 -12 -23 -20 -47 -17 -54 3 -7 13 6 23 30 9 23 20 42 24 42 8 0 -7
-123 -22 -170 -6 -19 -41 -102 -79 -183 -38 -81 -69 -156 -69 -165 1 -24 34
-93 56 -117 47 -51 47 -52 21 -87 -14 -18 -49 -80 -79 -138 -32 -63 -62 -109
-75 -116 -13 -6 -20 -14 -16 -17 14 -15 -145 -141 -235 -186 -116 -59 -231
-50 -401 30 -47 22 -80 34 -73 28 13 -14 17 -69 5 -69 -5 0 -30 20 -58 44 -27
25 -71 57 -97 73 -39 23 -48 33 -48 57 0 20 -13 43 -45 77 -48 51 -51 62 -34
122 l10 38 31 -45 c33 -51 48 -51 49 -3 0 18 9 64 20 102 10 39 20 75 22 82 2
7 6 15 9 18 3 3 -12 23 -33 44 -30 30 -39 47 -39 72 0 57 19 106 51 133 37 31
75 33 105 5 l22 -21 15 24 c15 23 89 194 101 233 4 12 38 36 88 62 45 23 84
41 85 39 6 -5 -86 -163 -102 -176 -14 -12 -21 -40 -10 -40 43 0 454 285 488
338 15 23 26 12 14 -16 -20 -47 -99 -186 -113 -200 -8 -7 -14 -17 -14 -22 0
-5 -11 -26 -25 -46 -14 -20 -24 -39 -22 -41 7 -6 82 38 143 84 33 24 64 47 70
51 6 4 14 18 18 32 l7 25 -20 -22 c-10 -13 -28 -23 -38 -23 -11 0 -23 -3 -27
-7 -7 -7 -46 -12 -46 -6 0 2 11 21 25 43 14 22 25 45 25 52 0 7 9 28 20 46 11
18 20 38 20 46 0 7 9 21 20 31 11 10 20 24 20 32 0 15 -26 18 -35 3 -4 -6 -12
-7 -18 -4 -7 4 -9 3 -4 -1 4 -5 0 -17 -9 -27 -16 -17 -18 -17 -31 0 -13 15
-13 15 -3 -5 9 -20 7 -25 -20 -41 -16 -10 -27 -22 -23 -26 4 -4 -3 -9 -15 -12
-12 -4 -24 -15 -27 -25 -4 -10 -11 -19 -17 -19 -9 0 -95 -56 -108 -71 -16 -17
-109 -67 -116 -61 -4 4 -4 1 0 -5 4 -7 3 -13 -3 -13 -5 0 -11 3 -14 8 -2 4 -3
2 -1 -4 2 -10 -48 -41 -53 -32 -1 1 -9 -6 -17 -17 -8 -11 -17 -17 -20 -14 -3
3 2 14 12 25 10 10 34 51 54 89 19 39 43 84 52 100 9 17 16 33 16 38 0 13 -30
8 -31 -5 0 -18 -43 -49 -114 -86 -97 -49 -135 -63 -147 -56 -7 5 -8 3 -3 -6 6
-10 3 -12 -13 -8 -12 4 -20 3 -18 -1 2 -3 -7 -11 -20 -18 -38 -18 -29 -1 43
73 36 38 67 77 68 87 1 9 11 27 23 38 13 11 22 31 21 47 0 25 -1 25 -12 9 -61
-94 -76 -116 -102 -146 -17 -19 -47 -52 -67 -73 -21 -21 -35 -38 -31 -38 3 0
0 -7 -7 -15 -22 -26 14 -28 70 -4 29 12 58 22 66 22 8 0 14 4 14 9 0 4 4 8 9
8 8 0 -18 -89 -29 -100 -10 -10 -53 -110 -53 -123 0 -10 -9 -9 -36 5 -19 10
-42 18 -51 18 -28 0 -76 -37 -90 -69 -7 -17 -16 -31 -21 -31 -4 0 -6 -28 -3
-61 5 -64 29 -119 51 -119 17 0 16 -34 -1 -69 -14 -27 -33 -126 -27 -145 1 -5
-5 -3 -14 4 -9 7 -14 19 -11 27 3 8 -1 16 -10 20 -8 3 -13 11 -10 18 3 8 -2
16 -10 19 -8 3 -14 19 -14 39 0 18 -4 37 -9 42 -11 14 -29 131 -36 245 -7 108
-12 140 -23 140 -10 -1 -52 -69 -52 -86 0 -8 -4 -14 -9 -14 -5 0 -11 -14 -15
-32 -5 -25 -9 -29 -18 -20 -8 8 -14 60 -16 151 -4 129 -2 146 27 262 18 68 47
157 66 197 19 40 35 77 35 83 0 24 45 94 88 138 87 88 86 86 67 115 -9 13 -22
23 -29 20 -19 -7 -40 24 -38 56 3 34 -12 41 -83 36 -27 -2 -62 -1 -77 1 -42 8
-21 26 21 19 26 -4 44 -1 60 10 13 9 52 19 89 22 47 3 72 10 85 23 10 11 22
19 27 19 6 0 10 7 10 15 0 9 13 24 29 33 17 9 32 25 35 34 2 10 12 21 23 24
10 3 32 12 48 19 l30 14 -38 0 c-20 1 -46 -5 -57 -11 -16 -10 -24 -10 -40 0
-27 17 -50 15 -50 -4 0 -15 -2 -15 -25 0 -27 18 -155 23 -155 6z m1134 -51
c32 -25 34 -64 4 -96 -38 -41 -85 -28 -117 34 -20 39 12 74 75 82 6 0 23 -8
38 -20z m635 -67 c12 -22 -3 -42 -31 -42 -21 0 -33 22 -24 45 8 21 43 19 55
-3z m-1807 -174 c-8 -8 -8 -17 -1 -30 9 -17 8 -19 -8 -16 -10 2 -17 11 -17 21
1 9 -2 17 -7 17 -5 0 -9 5 -9 10 0 6 12 10 27 10 20 0 24 -3 15 -12z m-98 -71
c3 3 6 -1 6 -11 0 -10 -5 -14 -12 -10 -7 5 -8 3 -3 -6 12 -19 12 -82 0 -85 -5
-2 -45 -6 -88 -8 -67 -5 -77 -3 -67 9 7 7 10 20 7 28 -3 8 -1 17 6 19 7 3 1 9
-13 15 -26 11 -21 13 34 16 20 1 37 -6 52 -23 14 -16 24 -20 24 -12 0 8 7 11
20 8 17 -4 18 -3 8 16 -7 12 -11 25 -10 30 1 4 -3 7 -9 7 -5 0 -7 5 -4 10 4 7
12 7 24 0 10 -5 21 -6 25 -3z m68 -39 c-7 -7 -12 -8 -12 -2 0 14 12 26 19 19
2 -3 -1 -11 -7 -17z m993 -587 c-12 -20 -95 -70 -100 -60 -4 5 -2 9 3 9 5 0
12 9 15 20 4 17 29 26 60 21 4 0 7 4 7 9 0 6 5 10 11 10 5 0 8 -4 4 -9z m574
-339 c12 -22 -3 -42 -30 -42 -19 0 -34 33 -24 50 10 16 44 11 54 -8z m-2764
-422 c3 -5 -3 -10 -15 -10 -12 0 -18 5 -15 10 3 6 10 10 15 10 5 0 12 -4 15
-10z m653 -91 c4 -30 -22 -46 -44 -28 -17 14 -18 31 -2 47 19 19 43 9 46 -19z
m297 -49 c0 -18 -6 -26 -23 -28 -24 -4 -38 18 -28 44 3 9 15 14 28 12 17 -2
23 -10 23 -28z m697 -225 c26 -32 46 -61 43 -63 -4 -5 -108 104 -114 120 -9
27 29 -4 71 -57z m738 -91 c0 -34 -21 -64 -45 -64 -34 0 -63 20 -68 47 -6 34
2 50 34 67 37 20 79 -7 79 -50z m244 -316 c7 -12 6 -21 -3 -32 -19 -22 -38
-20 -52 6 -10 18 -8 24 7 35 21 15 34 13 48 -9z"/>
<path d="M370 3201 c-7 -14 -7 -27 1 -45 15 -32 32 -38 56 -21 17 14 17 14 -4
15 -27 0 -31 25 -7 38 9 5 14 14 10 21 -11 18 -44 13 -56 -8z"/>
<path d="M850 3149 c0 -5 5 -7 10 -4 6 3 10 8 10 11 0 2 -4 4 -10 4 -5 0 -10
-5 -10 -11z"/>
<path d="M1546 2990 c14 -14 74 -24 74 -12 0 10 -33 22 -64 22 -13 0 -17 -3
-10 -10z"/>
<path d="M996 2961 c-4 -7 -5 -15 -2 -18 9 -9 19 4 14 18 -4 11 -6 11 -12 0z"/>
<path d="M2618 2913 c6 -2 18 -2 25 0 6 3 1 5 -13 5 -14 0 -19 -2 -12 -5z"/>
<path d="M48 2653 c-21 -5 -24 -33 -5 -52 10 -11 10 -14 0 -18 -7 -3 -13 -11
-13 -20 0 -8 6 -13 13 -10 19 7 47 -12 41 -27 -8 -20 12 -29 36 -16 14 8 19
17 15 30 -3 10 -2 21 3 24 5 3 7 17 4 31 -2 14 -7 23 -10 20 -3 -2 -10 5 -16
17 -11 21 -38 38 -35 21 4 -20 -2 -34 -12 -28 -6 4 -8 13 -5 21 3 8 4 13 3 13
-1 -1 -10 -3 -19 -6z m63 -66 c-13 -13 -26 -3 -16 12 3 6 11 8 17 5 6 -4 6
-10 -1 -17z"/>
<path d="M2855 2551 c-3 -5 -2 -12 3 -15 5 -3 9 1 9 9 0 17 -3 19 -12 6z"/>
<path d="M605 2541 c-3 -5 2 -17 11 -26 13 -13 19 -14 25 -4 4 7 5 18 2 26 -6
15 -29 18 -38 4z"/>
<path d="M2563 2525 c-7 -8 -13 -18 -13 -22 0 -4 -10 -19 -21 -33 -11 -14 -17
-18 -13 -10 4 8 3 11 -1 7 -5 -4 -10 -13 -11 -20 -1 -7 -5 -21 -10 -32 -5 -13
7 -7 36 20 l43 40 -7 -55 c-3 -30 -6 -70 -6 -87 0 -24 -5 -33 -17 -34 -11 0
-13 -3 -5 -6 9 -3 11 -25 6 -86 l-6 -82 21 25 c12 14 24 35 27 48 3 12 9 22
13 22 4 0 15 16 24 35 19 40 20 46 10 44 -5 -1 -18 -1 -30 0 -21 1 -22 5 -20
95 1 52 5 92 8 91 3 -2 3 9 1 26 -5 32 -11 35 -29 14z m47 -258 c0 -5 -8 -21
-19 -35 -10 -15 -21 -34 -25 -42 -3 -8 -3 -1 0 15 3 17 6 39 6 50 0 13 7 21
19 21 11 0 19 -4 19 -9z"/>
<path d="M2756 2465 c4 -8 8 -15 10 -15 2 0 4 7 4 15 0 8 -4 15 -10 15 -5 0
-7 -7 -4 -15z"/>
<path d="M77 2394 c-19 -10 -27 -21 -23 -31 4 -10 -3 -18 -24 -26 -27 -10 -30
-16 -30 -55 0 -39 2 -43 20 -37 16 5 20 2 20 -20 0 -14 7 -28 15 -31 19 -8 19
-19 -1 -39 -9 -9 -13 -19 -10 -23 15 -14 122 -1 166 21 44 22 67 57 36 57 -23
0 -30 20 -12 33 16 13 20 32 17 82 -1 25 -3 27 -12 13 -13 -24 -33 -23 -26 1
7 30 -2 36 -98 67 -5 2 -23 -4 -38 -12z"/>
<path d="M2622 2370 c0 -19 2 -27 5 -17 2 9 2 25 0 35 -3 9 -5 1 -5 -18z"/>
<path d="M2464 2375 c-12 -8 -24 -12 -27 -9 -3 3 -3 -5 1 -18 5 -18 7 -19 10
-5 2 9 7 15 11 13 4 -3 12 4 19 15 15 23 13 23 -14 4z"/>
<path d="M2443 2143 c9 -2 23 -2 30 0 6 3 -1 5 -18 5 -16 0 -22 -2 -12 -5z"/>
<path d="M2376 2090 c-43 -22 -130 -90 -123 -97 3 -2 27 11 54 30 70 51 128
72 159 59 26 -12 32 -4 12 16 -17 17 -57 14 -102 -8z"/>
<path d="M2395 2023 c-34 -35 -45 -64 -45 -113 0 -70 35 -64 71 12 20 44 22
51 8 62 -19 14 -13 50 8 42 9 -4 13 -1 11 6 -8 22 -26 19 -53 -9z"/>
<path d="M1417 1977 c-3 -8 -1 -20 4 -28 6 -10 9 -7 9 14 0 29 -5 35 -13 14z"/>
<path d="M1452 1895 c0 -16 2 -22 5 -12 2 9 2 23 0 30 -3 6 -5 -1 -5 -18z"/>
<path d="M445 960 c-4 -7 -18 -10 -31 -7 -31 6 -55 -20 -33 -37 20 -14 30 -42
23 -61 -5 -11 -16 -13 -43 -9 -35 6 -36 5 -51 -38 -11 -31 -21 -44 -37 -46
-16 -2 -23 -10 -23 -26 0 -19 -6 -23 -31 -24 -37 -1 -41 -3 -29 -22 7 -11 11
-11 23 -1 12 10 17 9 24 -3 5 -9 26 -16 53 -17 25 -2 56 -9 70 -16 47 -24 100
-7 100 32 0 8 7 18 15 22 32 18 -7 40 -77 42 -11 1 -15 6 -12 16 4 11 13 13
28 9 18 -6 19 -5 7 10 -12 14 -11 19 3 34 9 10 16 23 16 29 0 6 12 14 26 17
24 6 26 10 19 44 -8 43 -29 70 -40 52z"/>
<path d="M553 773 c-7 -2 -13 -9 -13 -15 0 -14 43 -6 48 10 4 12 -12 15 -35 5z"/>
<path d="M196 735 c4 -9 11 -14 16 -13 15 5 11 23 -6 26 -11 2 -14 -2 -10 -13z"/>
<path d="M1706 515 c3 -104 9 -215 14 -245 5 -34 6 18 3 135 -3 105 -9 215
-14 245 -5 35 -6 -14 -3 -135z"/>
<path d="M17 667 c-15 -13 -17 -40 -17 -301 0 -182 4 -286 10 -286 5 0 13 -18
16 -40 l7 -40 139 0 c130 0 140 1 133 18 -4 9 -10 28 -13 42 -3 14 -11 30 -19
35 -7 6 -16 23 -19 40 -3 18 -20 42 -40 59 -21 17 -33 34 -30 43 4 8 -4 17
-19 23 -16 6 -27 22 -35 49 -6 22 -14 42 -18 45 -4 2 -7 36 -7 75 1 69 1 70
39 100 57 45 90 83 93 107 3 19 -3 22 -54 28 -132 16 -148 16 -166 3z m63 -22
c0 -8 -7 -15 -15 -15 -8 0 -15 7 -15 15 0 8 7 15 15 15 8 0 15 -7 15 -15z"/>
<path d="M885 111 c-9 -16 3 -31 26 -31 14 0 19 6 17 17 -4 20 -33 29 -43 14z"/>
<path d="M770 49 c0 -5 5 -7 10 -4 6 3 10 8 10 11 0 2 -4 4 -10 4 -5 0 -10 -5
-10 -11z"/>
<path d="M1300 41 c0 -5 -3 -16 -6 -25 -5 -12 0 -16 21 -16 21 0 26 4 21 16
-3 9 -6 20 -6 25 0 5 -7 9 -15 9 -8 0 -15 -4 -15 -9z"/>
<path d="M688 3 c6 -2 18 -2 25 0 6 3 1 5 -13 5 -14 0 -19 -2 -12 -5z"/>
</g>
</svg>
